<svg version="1.1" xmlns="http://www.w3.org/2000/svg" xmlns:xlink="http://www.w3.org/1999/xlink" xml:space="preserve" xmlns:serif="http://www.serif.com/" style="fill-rule:evenodd;clip-rule:evenodd;stroke-linecap:round;stroke-linejoin:round;stroke-miterlimit:10;" viewBox="116.89 44.27 161.45 119.03">
    <g id="path1806" transform="matrix(4.16667,0,0,4.16667,-525.063,-389.829)">
        <path d="M165.809,123.104C166.881,123.434 167.47,125.915 167.363,128.064C167.363,128.064 167.041,130.654 166.077,131.702C165.916,131.867 169.667,130.269 169.667,128.78C169.667,130.213 172.077,130.82 172.131,130.765C173.738,129.332 172.024,128.064 172.024,128.064C172.024,128.064 171.702,125.529 174.113,125.529C175.131,125.474 173.953,125.474 175.345,125.529" style="fill:rgb(247,207,0);fill-rule:nonzero;stroke:black;stroke-width:1.23px;"/>
    </g>
    <g id="path1812" transform="matrix(4.16667,0,0,4.16667,-525.063,-389.829)">
        <path d="M185.632,122.663C186.542,122.828 189.596,122.442 191.793,121.285C185.364,120.238 175.078,114.671 168.488,110.758C166.345,109.491 165.97,105.963 162.863,105.302C160.452,104.806 159.059,106.68 158.255,107.066C157.827,107.286 156.059,107.672 155.094,107.892C156.594,108.499 157.88,109.27 158.416,109.601C161.148,111.089 156.005,118.144 164.684,123.49C165.702,124.151 169.452,125.198 170.524,125.529C171.595,125.859 171.649,127.678 171.649,128.064C171.649,128.064 171.327,130.654 170.363,131.702C170.202,131.867 173.953,130.269 173.953,128.78C173.953,130.213 177.649,131.812 177.596,131.702C176.31,129.717 176.31,128.009 176.31,128.009C176.31,128.009 175.988,125.474 178.399,125.474C179.417,125.419 178.238,125.419 179.631,125.474C182.417,125.584 186.114,126.025 189.971,126.851C188.096,124.757 187.614,123.655 185.632,122.663Z" style="fill:rgb(247,207,0);fill-rule:nonzero;stroke:black;stroke-width:1.23px;"/>
    </g>
    <g id="path1814" transform="matrix(4.16667,0,0,4.16667,-525.063,-389.829)">
        <path d="M167.791,110.428C165.006,110.758 164.738,115.167 167.577,117.703C171.167,120.899 179.203,122.553 182.042,121.561C180.167,120.624 178.024,119.136 176.953,117.978C178.935,118.64 181.399,118.805 182.792,118.309" style="fill:none;fill-rule:nonzero;stroke:black;stroke-width:1.23px;"/>
    </g>
    <g id="path1816" transform="matrix(4.16667,0,0,4.16667,-525.063,-389.829)">
        <path d="M162.434,107.562C162.327,108.058 161.845,108.333 161.416,108.168C160.988,108.003 160.72,107.507 160.88,107.066C160.988,106.57 161.47,106.294 161.898,106.459C162.327,106.57 162.541,107.066 162.434,107.562" style="fill-rule:nonzero;"/>
    </g>
</svg>