<svg version="1.1" xmlns="http://www.w3.org/2000/svg" xmlns:xlink="http://www.w3.org/1999/xlink" xml:space="preserve" xmlns:serif="http://www.serif.com/" style="fill-rule:evenodd;clip-rule:evenodd;stroke-linecap:round;stroke-linejoin:round;stroke-miterlimit:10;" viewBox="-12.37 -15.65 172.03 181.83">
    <g transform="matrix(2.08333,0,0,2.08333,0,0)">
        <rect id="Artboard1" x="0" y="0" width="390" height="312" style="fill:none;"/>
        <clipPath id="_clip1">
            <rect id="Artboard11" serif:id="Artboard1" x="0" y="0" width="390" height="312"/>
        </clipPath>
        <g clip-path="url(#_clip1)">
            <g id="path1125" transform="matrix(2,0,0,2,-326.515,-94.6777)">
                <path d="M174.863,56.306C170.899,56.085 172.345,52.503 171.113,50.739C172.345,52.503 175.881,52.172 174.863,56.306" style="fill:rgb(0,152,78);fill-rule:nonzero;"/>
            </g>
            <g id="path1127" transform="matrix(2,0,0,2,-326.515,-94.6777)">
                <path d="M174.863,56.306C170.899,56.085 172.345,52.503 171.113,50.739C172.345,52.503 175.881,52.172 174.863,56.306" style="fill:white;fill-rule:nonzero;stroke:black;stroke-width:1.19px;"/>
            </g>
            <g id="path1129" transform="matrix(2,0,0,2,-326.515,-94.6777)">
                <path d="M187.185,56.251C186.167,52.117 189.757,52.503 190.936,50.684C189.757,52.503 191.096,56.03 187.185,56.251" style="fill:rgb(0,152,78);fill-rule:nonzero;"/>
            </g>
            <g id="path1131" transform="matrix(2,0,0,2,-326.515,-94.6777)">
                <path d="M187.185,56.251C186.167,52.117 189.757,52.503 190.936,50.684C189.757,52.503 191.096,56.03 187.185,56.251" style="fill:white;fill-rule:nonzero;stroke:black;stroke-width:1.19px;"/>
            </g>
            <g id="path1133" transform="matrix(2,0,0,2,-326.515,-94.6777)">
                <path d="M177.917,61.156L174.595,56.196C173.631,54.763 173.792,53.219 174.756,52.172C176.524,50.298 179.792,50.298 181.078,50.298C182.364,50.298 185.632,50.298 187.4,52.172C188.364,53.219 188.525,54.763 187.56,56.196L184.239,61.156" style="fill:white;fill-rule:nonzero;"/>
            </g>
            <g id="path1135" transform="matrix(2,0,0,2,-326.515,-94.6777)">
                <path d="M177.917,60.77L174.595,55.81C173.631,54.377 173.792,52.834 174.756,51.786C176.524,49.913 179.792,49.913 181.078,49.913C182.364,49.913 185.632,49.913 187.4,51.786C188.364,52.834 188.525,54.377 187.56,55.81L184.239,60.77" style="fill:white;fill-rule:nonzero;stroke:black;stroke-width:1.19px;stroke-linecap:butt;stroke-linejoin:miter;"/>
            </g>
            <g id="path1137" transform="matrix(2,0,0,2,-326.515,-94.6777)">
                <path d="M190.989,68.872C194.311,66.557 195.114,70.36 197.043,71.021C195.061,70.36 192.436,72.84 190.989,68.872" style="fill:rgb(0,152,78);fill-rule:nonzero;"/>
            </g>
            <g id="path1139" transform="matrix(2,0,0,2,-326.515,-94.6777)">
                <path d="M190.989,68.872C194.311,66.557 195.114,70.36 197.043,71.021C195.061,70.36 192.436,72.84 190.989,68.872" style="fill:white;fill-rule:nonzero;stroke:black;stroke-width:1.19px;"/>
            </g>
            <g id="path1141" transform="matrix(2,0,0,2,-326.515,-94.6777)">
                <path d="M184.185,60.77L187.507,55.81C188.471,54.377 189.918,54.046 191.096,54.708C193.293,55.92 194.311,59.282 194.686,60.605C195.061,61.927 196.079,65.289 194.954,67.659C194.311,68.982 192.971,69.588 191.418,69.037L186.06,67.163" style="fill:rgb(237,28,36);fill-rule:nonzero;"/>
            </g>
            <g id="path1143" transform="matrix(2,0,0,2,-326.515,-94.6777)">
                <path d="M184.185,61.156L187.507,56.196C188.471,54.763 189.918,54.432 191.096,55.093C193.293,56.306 194.311,59.668 194.686,60.991C195.061,62.313 196.079,65.675 194.954,68.045C194.311,69.368 192.971,69.974 191.418,69.423L186.06,67.549" style="fill:white;fill-rule:nonzero;stroke:black;stroke-width:1.19px;stroke-linecap:butt;stroke-linejoin:miter;"/>
            </g>
            <g id="path1145" transform="matrix(2,0,0,2,-326.515,-94.6777)">
                <path d="M181.078,76.698C184.132,79.399 181.024,81.383 181.024,83.587C181.024,81.327 178.024,79.399 181.078,76.698" style="fill:rgb(0,152,78);fill-rule:nonzero;"/>
            </g>
            <g id="path1147" transform="matrix(2,0,0,2,-326.515,-94.6777)">
                <path d="M181.078,76.698C184.132,79.399 181.024,81.383 181.024,83.587C181.024,81.327 178.024,79.399 181.078,76.698" style="fill:white;fill-rule:nonzero;stroke:black;stroke-width:1.19px;"/>
            </g>
            <g id="path1149" transform="matrix(2,0,0,2,-326.515,-94.6777)">
                <path d="M186.114,67.163L191.471,69.037C193.025,69.588 193.775,70.966 193.561,72.399C193.186,75.045 190.507,77.139 189.489,77.91C188.471,78.737 185.792,80.831 183.328,80.391C181.989,80.17 181.024,78.958 181.024,77.194L181.024,71.076" style="fill:white;fill-rule:nonzero;"/>
            </g>
            <g id="path1151" transform="matrix(2,0,0,2,-326.515,-94.6777)">
                <path d="M186.114,67.163L191.471,69.037C193.025,69.588 193.775,70.966 193.561,72.399C193.186,75.045 190.507,77.139 189.489,77.91C188.471,78.737 185.792,80.831 183.328,80.391C181.989,80.17 181.024,78.958 181.024,77.194L181.024,71.076" style="fill:none;fill-rule:nonzero;stroke:black;stroke-width:1.19px;stroke-linecap:butt;stroke-linejoin:miter;"/>
            </g>
            <g id="path1153" transform="matrix(2,0,0,2,-326.515,-94.6777)">
                <path d="M171.113,68.927C169.667,72.895 166.988,70.36 165.059,71.021C166.988,70.305 167.791,66.612 171.113,68.927" style="fill:rgb(0,152,78);fill-rule:nonzero;"/>
            </g>
            <g id="path1155" transform="matrix(2,0,0,2,-326.515,-94.6777)">
                <path d="M171.113,68.927C169.667,72.895 166.988,70.36 165.059,71.021C166.988,70.305 167.791,66.612 171.113,68.927" style="fill:white;fill-rule:nonzero;stroke:black;stroke-width:1.19px;"/>
            </g>
            <g id="path1157" transform="matrix(2,0,0,2,-326.515,-94.6777)">
                <path d="M181.024,71.187L181.024,77.304C181.024,79.068 180.06,80.225 178.721,80.501C176.256,80.942 173.631,78.847 172.56,78.021C171.542,77.194 168.863,75.1 168.488,72.509C168.274,71.076 169.024,69.698 170.577,69.147L175.935,67.273" style="fill:rgb(237,28,36);fill-rule:nonzero;"/>
            </g>
            <g id="path1159" transform="matrix(2,0,0,2,-326.515,-94.6777)">
                <path d="M181.024,71.187L181.024,77.304C181.024,79.068 180.06,80.225 178.721,80.501C176.256,80.942 173.631,78.847 172.56,78.021C171.542,77.194 168.863,75.1 168.488,72.509C168.274,71.076 169.024,69.698 170.577,69.147L175.935,67.273" style="fill:white;fill-rule:nonzero;stroke:black;stroke-width:1.19px;stroke-linecap:butt;stroke-linejoin:miter;"/>
            </g>
            <g id="path1161" transform="matrix(2,0,0,2,-326.515,-94.6777)">
                <path d="M175.935,67.163L170.577,69.037C169.024,69.588 167.684,68.927 167.041,67.659C165.916,65.289 166.934,61.927 167.309,60.605C167.684,59.282 168.702,55.92 170.899,54.708C172.131,54.046 173.524,54.377 174.488,55.81L177.81,60.77" style="fill:white;fill-rule:nonzero;"/>
            </g>
            <g id="path1163" transform="matrix(2,0,0,2,-326.515,-94.6777)">
                <path d="M175.935,67.163L170.577,69.037C169.024,69.588 167.684,68.927 167.041,67.659C165.916,65.289 166.934,61.927 167.309,60.605C167.684,59.282 168.702,55.92 170.899,54.708C172.131,54.046 173.524,54.377 174.488,55.81L177.81,60.77" style="fill:none;fill-rule:nonzero;stroke:black;stroke-width:1.19px;stroke-linecap:butt;stroke-linejoin:miter;"/>
            </g>
            <g id="path1165" transform="matrix(2,0,0,2,-326.515,-94.6777)">
                <path d="M181.024,61.266L181.024,56.912C181.024,55.644 181.721,54.818 182.685,54.652C184.453,54.377 185.953,56.416 186.703,57.022C187.453,57.629 189.757,58.51 190.025,60.439C190.185,61.487 189.65,62.479 188.525,62.864L184.667,64.242" style="fill:white;fill-rule:nonzero;"/>
            </g>
            <g id="path1167" transform="matrix(2,0,0,2,-326.515,-94.6777)">
                <path d="M181.024,61.266L181.024,56.912C181.024,55.644 181.721,54.818 182.685,54.652C184.453,54.377 185.953,56.416 186.703,57.022C187.453,57.629 189.757,58.51 190.025,60.439C190.185,61.487 189.65,62.479 188.525,62.864L184.667,64.242" style="fill:none;fill-rule:nonzero;stroke:black;stroke-width:1.19px;stroke-linecap:butt;stroke-linejoin:miter;"/>
            </g>
            <g id="path1169" transform="matrix(2,0,0,2,-326.515,-94.6777)">
                <path d="M184.667,64.132L188.525,62.754C189.65,62.368 190.614,62.809 191.043,63.746C191.846,65.455 190.507,67.659 190.239,68.596C189.971,69.533 189.864,72.179 188.257,73.06C187.4,73.556 186.382,73.281 185.685,72.289L183.274,68.762" style="fill:white;fill-rule:nonzero;"/>
            </g>
            <g id="path1171" transform="matrix(2,0,0,2,-326.515,-94.6777)">
                <path d="M184.667,64.132L188.525,62.754C189.65,62.368 190.614,62.809 191.043,63.746C191.846,65.455 190.507,67.659 190.239,68.596C189.971,69.533 189.864,72.179 188.257,73.06C187.4,73.556 186.382,73.281 185.685,72.289L183.274,68.762" style="fill:none;fill-rule:nonzero;stroke:black;stroke-width:1.19px;stroke-linecap:butt;stroke-linejoin:miter;"/>
            </g>
            <g id="path1173" transform="matrix(2,0,0,2,-326.515,-94.6777)">
                <path d="M183.274,68.762L185.685,72.289C186.382,73.336 186.275,74.438 185.578,75.21C184.346,76.588 181.989,75.871 181.024,75.871C180.114,75.871 177.756,76.588 176.47,75.21C175.774,74.438 175.667,73.336 176.363,72.289L178.774,68.762" style="fill:white;fill-rule:nonzero;"/>
            </g>
            <g id="path1175" transform="matrix(2,0,0,2,-326.515,-94.6777)">
                <path d="M183.274,68.762L185.685,72.289C186.382,73.336 186.275,74.438 185.578,75.21C184.346,76.588 181.989,75.871 181.024,75.871C180.114,75.871 177.756,76.588 176.47,75.21C175.774,74.438 175.667,73.336 176.363,72.289L178.774,68.762" style="fill:none;fill-rule:nonzero;stroke:black;stroke-width:1.19px;stroke-linecap:butt;stroke-linejoin:miter;"/>
            </g>
            <g id="path1177" transform="matrix(2,0,0,2,-326.515,-94.6777)">
                <path d="M178.774,68.762L176.363,72.289C175.667,73.336 174.649,73.556 173.792,73.06C172.238,72.179 172.131,69.533 171.81,68.596C171.542,67.659 170.149,65.455 171.006,63.746C171.435,62.809 172.399,62.368 173.524,62.754L177.381,64.132" style="fill:white;fill-rule:nonzero;"/>
            </g>
            <g id="path1179" transform="matrix(2,0,0,2,-326.515,-94.6777)">
                <path d="M178.774,68.762L176.363,72.289C175.667,73.336 174.649,73.556 173.792,73.06C172.238,72.179 172.131,69.533 171.81,68.596C171.542,67.659 170.149,65.455 171.006,63.746C171.435,62.809 172.399,62.368 173.524,62.754L177.381,64.132" style="fill:none;fill-rule:nonzero;stroke:black;stroke-width:1.19px;stroke-linecap:butt;stroke-linejoin:miter;"/>
            </g>
            <g id="path1181" transform="matrix(2,0,0,2,-326.515,-94.6777)">
                <path d="M177.381,64.132L173.524,62.754C172.399,62.368 171.863,61.376 172.024,60.329C172.292,58.455 174.595,57.518 175.345,56.912C176.095,56.306 177.596,54.267 179.363,54.542C180.328,54.708 181.024,55.534 181.024,56.802L181.024,61.156" style="fill:white;fill-rule:nonzero;"/>
            </g>
            <g id="path1183" transform="matrix(2,0,0,2,-326.515,-94.6777)">
                <path d="M177.381,64.132L173.524,62.754C172.399,62.368 171.863,61.376 172.024,60.329C172.292,58.455 174.595,57.518 175.345,56.912C176.095,56.306 177.596,54.267 179.363,54.542C180.328,54.708 181.024,55.534 181.024,56.802L181.024,61.156" style="fill:none;fill-rule:nonzero;stroke:black;stroke-width:1.19px;stroke-linecap:butt;stroke-linejoin:miter;"/>
            </g>
            <g id="path1185" transform="matrix(2,0,0,2,-326.515,-94.6777)">
                <path d="M180.006,63.912L178.935,62.313C178.613,61.872 178.667,61.321 178.988,60.991C179.578,60.384 180.596,60.715 181.024,60.715C181.453,60.715 182.524,60.384 183.06,60.991C183.382,61.321 183.435,61.817 183.114,62.313L182.042,63.912" style="fill:white;fill-rule:nonzero;"/>
            </g>
            <g id="path1187" transform="matrix(2,0,0,2,-326.515,-94.6777)">
                <path d="M180.006,63.912L178.935,62.313C178.613,61.872 178.667,61.321 178.988,60.991C179.578,60.384 180.596,60.715 181.024,60.715C181.453,60.715 182.524,60.384 183.06,60.991C183.382,61.321 183.435,61.817 183.114,62.313L182.042,63.912" style="fill:white;fill-rule:nonzero;stroke:black;stroke-width:1.19px;stroke-linecap:butt;stroke-linejoin:miter;"/>
            </g>
            <g id="path1189" transform="matrix(2,0,0,2,-326.515,-94.6777)">
                <path d="M182.042,63.912L183.114,62.313C183.435,61.872 183.864,61.762 184.292,61.983C184.989,62.368 185.042,63.581 185.203,64.022C185.31,64.463 185.953,65.455 185.578,66.226C185.364,66.667 184.935,66.833 184.453,66.667L182.685,66.061" style="fill:white;fill-rule:nonzero;"/>
            </g>
            <g id="path1191" transform="matrix(2,0,0,2,-326.515,-94.6777)">
                <path d="M182.042,63.912L183.114,62.313C183.435,61.872 183.864,61.762 184.292,61.983C184.989,62.368 185.042,63.581 185.203,64.022C185.31,64.463 185.953,65.455 185.578,66.226C185.364,66.667 184.935,66.833 184.453,66.667L182.685,66.061" style="fill:white;fill-rule:nonzero;stroke:black;stroke-width:1.19px;stroke-linecap:butt;stroke-linejoin:miter;"/>
            </g>
            <g id="path1193" transform="matrix(2,0,0,2,-326.515,-94.6777)">
                <path d="M182.685,66.006L184.453,66.612C184.935,66.777 185.203,67.218 185.15,67.714C185.042,68.596 183.971,68.982 183.649,69.258C183.328,69.533 182.632,70.47 181.828,70.305C181.399,70.25 181.078,69.864 181.078,69.258L181.078,67.273" style="fill:white;fill-rule:nonzero;"/>
            </g>
            <g id="path1195" transform="matrix(2,0,0,2,-326.515,-94.6777)">
                <path d="M182.685,66.006L184.453,66.612C184.935,66.777 185.203,67.218 185.15,67.714C185.042,68.596 183.971,68.982 183.649,69.258C183.328,69.533 182.632,70.47 181.828,70.305C181.399,70.25 181.078,69.864 181.078,69.258L181.078,67.273" style="fill:white;fill-rule:nonzero;stroke:black;stroke-width:1.19px;stroke-linecap:butt;stroke-linejoin:miter;"/>
            </g>
            <g id="path1197" transform="matrix(2,0,0,2,-326.515,-94.6777)">
                <path d="M181.024,67.273L181.024,69.258C181.024,69.809 180.703,70.195 180.274,70.305C179.471,70.415 178.774,69.533 178.453,69.258C178.131,68.982 177.06,68.596 176.953,67.714C176.899,67.218 177.113,66.777 177.649,66.612L179.417,66.006" style="fill:white;fill-rule:nonzero;"/>
            </g>
            <g id="path1199" transform="matrix(2,0,0,2,-326.515,-94.6777)">
                <path d="M181.024,67.273L181.024,69.258C181.024,69.809 180.703,70.195 180.274,70.305C179.471,70.415 178.774,69.533 178.453,69.258C178.131,68.982 177.06,68.596 176.953,67.714C176.899,67.218 177.113,66.777 177.649,66.612L179.417,66.006" style="fill:white;fill-rule:nonzero;stroke:black;stroke-width:1.19px;stroke-linecap:butt;stroke-linejoin:miter;"/>
            </g>
            <g id="path1201" transform="matrix(2,0,0,2,-326.515,-94.6777)">
                <path d="M179.363,66.006L177.596,66.612C177.113,66.777 176.631,66.557 176.47,66.171C176.095,65.4 176.738,64.408 176.846,63.967C176.953,63.526 177.006,62.368 177.756,61.927C178.131,61.707 178.613,61.817 178.935,62.258L180.006,63.856" style="fill:white;fill-rule:nonzero;"/>
            </g>
            <g id="path1203" transform="matrix(2,0,0,2,-326.515,-94.6777)">
                <path d="M179.363,66.006L177.596,66.612C177.113,66.777 176.631,66.557 176.47,66.171C176.095,65.4 176.738,64.408 176.846,63.967C176.953,63.526 177.006,62.368 177.756,61.927C178.131,61.707 178.613,61.817 178.935,62.258L180.006,63.856" style="fill:white;fill-rule:nonzero;stroke:black;stroke-width:1.19px;stroke-linecap:butt;stroke-linejoin:miter;"/>
            </g>
            <g id="path1205" transform="matrix(2,0,0,2,-326.515,-94.6777)">
                <path d="M179.149,65.4C179.149,66.502 180.006,67.439 181.024,67.439C182.096,67.439 182.899,66.502 182.899,65.4C182.899,64.297 182.042,63.36 181.024,63.36C180.006,63.36 179.149,64.297 179.149,65.4" style="fill-rule:nonzero;"/>
            </g>
            <g id="ellipse1207" transform="matrix(2,0,0,2,-326.515,-94.6777)">
                <ellipse cx="181.024" cy="65.4" rx="1.875" ry="2.039" style="fill:none;stroke:black;stroke-width:1.08px;"/>
            </g>
            <g id="path8820" transform="matrix(1.07148,0,0,1.10228,-188.237,-147.297)">
                <path d="M220,149.9C227.4,149.5 224.7,143 227,139.8C224.7,143 218.2,142.4 220,149.9" style="fill:rgb(0,152,78);fill-rule:nonzero;"/>
            </g>
            <g id="path8822" transform="matrix(1.07148,0,0,1.10228,-188.237,-147.297)">
                <path d="M220,149.9C227.4,149.5 224.7,143 227,139.8C224.7,143 218.2,142.4 220,149.9" style="fill:rgb(155,27,47);fill-rule:nonzero;stroke:black;stroke-width:2.2px;"/>
            </g>
            <g id="path8824" transform="matrix(1.07148,0,0,1.10228,-188.237,-147.297)">
                <path d="M197.1,149.8C199,142.3 192.3,143 190.1,139.7C192.3,143 189.7,149.4 197.1,149.8" style="fill:rgb(0,152,78);fill-rule:nonzero;"/>
            </g>
            <g id="path8826" transform="matrix(1.07148,0,0,1.10228,-188.237,-147.297)">
                <path d="M197.1,149.8C199,142.3 192.3,143 190.1,139.7C192.3,143 189.7,149.4 197.1,149.8" style="fill:rgb(155,27,47);fill-rule:nonzero;stroke:black;stroke-width:2.2px;"/>
            </g>
            <g id="path8828" transform="matrix(1.07148,0,0,1.10228,-188.237,-147.297)">
                <path d="M214.4,158.7L220.6,149.7C222.4,147.1 222.1,144.3 220.3,142.4C217,139 210.9,139 208.5,139C206.1,139 200,139 196.7,142.4C194.9,144.3 194.6,147.1 196.4,149.7L202.6,158.7" style="fill:rgb(155,27,47);fill-rule:nonzero;"/>
            </g>
            <g id="path8830" transform="matrix(1.07148,0,0,1.10228,-188.237,-147.297)">
                <path d="M214.4,158L220.6,149C222.4,146.4 222.1,143.6 220.3,141.7C217,138.3 210.9,138.3 208.5,138.3C206.1,138.3 200,138.3 196.7,141.7C194.9,143.6 194.6,146.4 196.4,149L202.6,158" style="fill:none;fill-rule:nonzero;stroke:black;stroke-width:2.2px;stroke-linecap:butt;stroke-linejoin:miter;"/>
            </g>
            <g id="path8832" transform="matrix(1.07148,0,0,1.10228,-188.237,-147.297)">
                <path d="M190,172.7C183.8,168.5 182.3,175.4 178.7,176.6C182.3,175.4 187.3,179.9 190,172.7" style="fill:rgb(0,152,78);fill-rule:nonzero;"/>
            </g>
            <g id="path8834" transform="matrix(1.07148,0,0,1.10228,-188.237,-147.297)">
                <path d="M190,172.7C183.8,168.5 182.3,175.4 178.7,176.6C182.3,175.4 187.3,179.9 190,172.7" style="fill:rgb(155,27,47);fill-rule:nonzero;stroke:black;stroke-width:2.2px;"/>
            </g>
            <g id="path8836" transform="matrix(1.07148,0,0,1.10228,-188.237,-147.297)">
                <path d="M202.7,158.7L196.5,149.7C194.7,147.1 192,146.5 189.8,147.7C185.7,149.9 183.8,156 183.1,158.4C182.4,160.8 180.5,166.9 182.6,171.2C183.8,173.6 186.3,174.7 189.2,173.7L199.2,170.3" style="fill:rgb(155,27,47);fill-rule:nonzero;"/>
            </g>
            <g id="path8838" transform="matrix(1.07148,0,0,1.10228,-188.237,-147.297)">
                <path d="M202.7,158L196.5,149C194.7,146.4 192,145.8 189.8,147C185.7,149.2 183.8,155.3 183.1,157.7C182.4,160.1 180.5,166.2 182.6,170.5C183.8,172.9 186.3,174 189.2,173L199.2,169.6" style="fill:none;fill-rule:nonzero;stroke:black;stroke-width:2.2px;stroke-linecap:butt;stroke-linejoin:miter;"/>
            </g>
            <g id="path8840" transform="matrix(1.07148,0,0,1.10228,-188.237,-147.297)">
                <path d="M208.5,186.9C202.8,191.8 208.6,195.4 208.6,199.4C208.6,195.3 214.2,191.8 208.5,186.9" style="fill:rgb(0,152,78);fill-rule:nonzero;"/>
            </g>
            <g id="path8842" transform="matrix(1.07148,0,0,1.10228,-188.237,-147.297)">
                <path d="M208.5,186.9C202.8,191.8 208.6,195.4 208.6,199.4C208.6,195.3 214.2,191.8 208.5,186.9" style="fill:rgb(155,27,47);fill-rule:nonzero;stroke:black;stroke-width:2.2px;"/>
            </g>
            <g id="path8844" transform="matrix(1.07148,0,0,1.10228,-188.237,-147.297)">
                <path d="M199.1,169.6L189.1,173C186.2,174 184.8,176.5 185.2,179.1C185.9,183.9 190.9,187.7 192.8,189.1C194.7,190.6 199.7,194.4 204.3,193.6C206.8,193.2 208.6,191 208.6,187.8L208.6,176.7" style="fill:rgb(237,28,36);fill-rule:nonzero;"/>
            </g>
            <g id="path8846" transform="matrix(1.07148,0,0,1.10228,-188.237,-147.297)">
                <path d="M199.1,170.4L189.1,173.8C186.2,174.8 184.8,177.3 185.2,179.9C185.9,184.7 190.9,188.5 192.8,189.9C194.7,191.4 199.7,195.2 204.3,194.4C206.8,194 208.6,191.8 208.6,188.6L208.6,177.5" style="fill:rgb(155,27,47);fill-rule:nonzero;stroke:black;stroke-width:2.2px;stroke-linecap:butt;stroke-linejoin:miter;"/>
            </g>
            <g id="path8848" transform="matrix(1.07148,0,0,1.10228,-188.237,-147.297)">
                <path d="M227.1,172.8C229.8,180 234.8,175.4 238.4,176.6C234.8,175.3 233.3,168.6 227.1,172.8" style="fill:rgb(0,152,78);fill-rule:nonzero;"/>
            </g>
            <g id="path8850" transform="matrix(1.07148,0,0,1.10228,-188.237,-147.297)">
                <path d="M227.1,172.8C229.8,180 234.8,175.4 238.4,176.6C234.8,175.3 233.3,168.6 227.1,172.8" style="fill:rgb(155,27,47);fill-rule:nonzero;stroke:black;stroke-width:2.2px;"/>
            </g>
            <g id="path8852" transform="matrix(1.07148,0,0,1.10228,-188.237,-147.297)">
                <path d="M208.5,176.9L208.5,188C208.5,191.2 210.3,193.3 212.8,193.8C217.4,194.6 222.3,190.8 224.3,189.3C226.2,187.8 231.2,184 231.9,179.3C232.3,176.7 230.9,174.2 228,173.2L218,169.8" style="fill:rgb(171,29,55);fill-rule:nonzero;"/>
            </g>
            <g id="path8854" transform="matrix(1.07148,0,0,1.10228,-188.237,-147.297)">
                <path d="M208.5,176.9L208.5,188C208.5,191.2 210.3,193.3 212.8,193.8C217.4,194.6 222.3,191.5 224.3,190.1C226.2,188.6 231.2,184.1 231.9,179.3C232.3,176.7 230.9,174.2 228,173.2L218,169.8" style="fill:rgb(155,27,47);fill-rule:nonzero;stroke:black;stroke-width:2.2px;stroke-linecap:butt;stroke-linejoin:miter;"/>
            </g>
            <g id="path8856" transform="matrix(1.07148,0,0,1.10228,-188.237,-147.297)">
                <path d="M218,170.4L228,173.8C230.9,174.8 233.4,173.6 234.6,171.3C236.7,167 234.8,160.9 234.1,158.5C233.4,156.1 231.5,150 227.4,147.8C225.1,146.6 222.5,147.2 220.7,149.8L214.5,158.8" style="fill:rgb(155,27,47);fill-rule:nonzero;"/>
            </g>
            <g id="path8858" transform="matrix(1.07148,0,0,1.10228,-188.237,-147.297)">
                <path d="M218,169.6L228,173C230.9,174 233.4,172.8 234.6,170.5C236.7,166.2 234.8,160.1 234.1,157.7C233.4,155.3 231.5,149.2 227.4,147C225.1,145.8 222.5,146.4 220.7,149L214.5,158" style="fill:none;fill-rule:nonzero;stroke:black;stroke-width:2.2px;stroke-linecap:butt;stroke-linejoin:miter;"/>
            </g>
            <g id="path8860" transform="matrix(1.07148,0,0,1.10228,-188.237,-147.297)">
                <path d="M208.5,158.9L208.5,151C208.5,148.7 207.2,147.2 205.4,146.9C202.1,146.4 199.3,150.1 197.9,151.2C196.5,152.3 192.2,153.9 191.7,157.4C191.4,159.3 192.4,161.1 194.5,161.8L201.7,164.3" style="fill:rgb(171,29,55);fill-rule:nonzero;"/>
            </g>
            <g id="path8862" transform="matrix(1.07148,0,0,1.10228,-188.237,-147.297)">
                <path d="M208.5,158.9L208.5,151C208.5,148.7 207.2,147.2 205.4,146.9C202.1,146.4 199.3,150.1 197.9,151.2C196.5,152.3 192.2,153.9 191.7,157.4C191.4,159.3 192.4,161.1 194.5,161.8L201.7,164.3" style="fill:rgb(155,27,47);fill-rule:nonzero;stroke:black;stroke-width:2.2px;stroke-linecap:butt;stroke-linejoin:miter;"/>
            </g>
            <g id="path8864" transform="matrix(1.07148,0,0,1.10228,-188.237,-147.297)">
                <path d="M201.7,164.1L194.5,161.6C192.4,160.9 190.6,161.7 189.8,163.4C188.3,166.5 190.8,170.5 191.3,172.2C191.8,173.9 192,178.7 195,180.3C196.6,181.2 198.5,180.7 199.8,178.9L204.3,172.5" style="fill:rgb(155,27,47);fill-rule:nonzero;"/>
            </g>
            <g id="path8866" transform="matrix(1.07148,0,0,1.10228,-188.237,-147.297)">
                <path d="M201.7,164.1L194.5,161.6C192.4,160.9 190.6,161.7 189.8,163.4C188.3,166.5 190.8,170.5 191.3,172.2C191.8,173.9 192,178.7 195,180.3C196.6,181.2 198.5,180.7 199.8,178.9L204.3,172.5" style="fill:none;fill-rule:nonzero;stroke:black;stroke-width:2.2px;stroke-linecap:butt;stroke-linejoin:miter;"/>
            </g>
            <g id="path8868" transform="matrix(1.07148,0,0,1.10228,-188.237,-147.297)">
                <path d="M204.3,172.5L199.8,178.9C198.5,180.8 198.7,182.8 200,184.2C202.3,186.7 206.7,185.4 208.5,185.4C210.2,185.4 214.6,186.7 217,184.2C218.3,182.8 218.5,180.8 217.2,178.9L212.7,172.5" style="fill:rgb(155,27,47);fill-rule:nonzero;"/>
            </g>
            <g id="path8870" transform="matrix(1.07148,0,0,1.10228,-188.237,-147.297)">
                <path d="M204.3,172.5L199.8,178.9C198.5,180.8 198.7,182.8 200,184.2C202.3,186.7 206.7,185.4 208.5,185.4C210.2,185.4 214.6,186.7 217,184.2C218.3,182.8 218.5,180.8 217.2,178.9L212.7,172.5" style="fill:none;fill-rule:nonzero;stroke:black;stroke-width:2.2px;stroke-linecap:butt;stroke-linejoin:miter;"/>
            </g>
            <g id="path8872" transform="matrix(1.07148,0,0,1.10228,-188.237,-147.297)">
                <path d="M212.8,172.5L217.3,178.9C218.6,180.8 220.5,181.2 222.1,180.3C225,178.7 225.2,173.9 225.8,172.2C226.3,170.5 228.9,166.5 227.3,163.4C226.5,161.7 224.7,160.9 222.6,161.6L215.4,164.1" style="fill:white;fill-rule:nonzero;"/>
            </g>
            <g id="path8874" transform="matrix(1.07148,0,0,1.10228,-188.237,-147.297)">
                <path d="M212.8,172.5L217.3,178.9C218.6,180.8 220.5,181.2 222.1,180.3C225,178.7 225.2,173.9 225.8,172.2C226.3,170.5 228.9,166.5 227.3,163.4C226.5,161.7 224.7,160.9 222.6,161.6L215.4,164.1" style="fill:rgb(155,27,47);fill-rule:nonzero;stroke:black;stroke-width:2.2px;stroke-linecap:butt;stroke-linejoin:miter;"/>
            </g>
            <g id="path8876" transform="matrix(1.07148,0,0,1.10228,-188.237,-147.297)">
                <path d="M215.3,164.1L222.5,161.6C224.6,160.9 225.6,159.1 225.3,157.2C224.8,153.8 220.5,152.1 219.1,151C217.7,149.9 214.9,146.2 211.6,146.7C209.8,147 208.5,148.5 208.5,150.8L208.5,158.7" style="fill:rgb(155,27,47);fill-rule:nonzero;"/>
            </g>
            <g id="path8878" transform="matrix(1.07148,0,0,1.10228,-188.237,-147.297)">
                <path d="M215.3,164.1L222.5,161.6C224.6,160.9 225.6,159.1 225.3,157.2C224.8,153.8 220.5,152.1 219.1,151C217.7,149.9 214.9,146.2 211.6,146.7C209.8,147 208.5,148.5 208.5,150.8L208.5,158.7" style="fill:none;fill-rule:nonzero;stroke:black;stroke-width:2.2px;stroke-linecap:butt;stroke-linejoin:miter;"/>
            </g>
            <g id="path8880" transform="matrix(1.07148,0,0,1.10228,-188.237,-147.297)">
                <path d="M210.4,163.7L212.4,160.8C213,160 212.9,159 212.3,158.4C211.2,157.3 209.3,157.9 208.5,157.9C207.7,157.9 205.7,157.3 204.7,158.4C204.1,159 204,159.9 204.6,160.8L206.6,163.7" style="fill:white;fill-rule:nonzero;"/>
            </g>
            <g id="path8882" transform="matrix(1.07148,0,0,1.10228,-188.237,-147.297)">
                <path d="M210.4,163.7L212.4,160.8C213,160 212.9,159 212.3,158.4C211.2,157.3 209.3,157.9 208.5,157.9C207.7,157.9 205.7,157.3 204.7,158.4C204.1,159 204,159.9 204.6,160.8L206.6,163.7" style="fill:rgb(155,27,47);fill-rule:nonzero;stroke:black;stroke-width:2.2px;stroke-linecap:butt;stroke-linejoin:miter;"/>
            </g>
            <g id="path8884" transform="matrix(1.07148,0,0,1.10228,-188.237,-147.297)">
                <path d="M206.6,163.7L204.6,160.8C204,160 203.2,159.8 202.4,160.2C201.1,160.9 201,163.1 200.7,163.9C200.5,164.7 199.3,166.5 200,167.9C200.4,168.7 201.2,169 202.1,168.7L205.4,167.6" style="fill:white;fill-rule:nonzero;"/>
            </g>
            <g id="path8886" transform="matrix(1.07148,0,0,1.10228,-188.237,-147.297)">
                <path d="M206.6,163.7L204.6,160.8C204,160 203.2,159.8 202.4,160.2C201.1,160.9 201,163.1 200.7,163.9C200.5,164.7 199.3,166.5 200,167.9C200.4,168.7 201.2,169 202.1,168.7L205.4,167.6" style="fill:rgb(155,27,47);fill-rule:nonzero;stroke:black;stroke-width:2.2px;stroke-linecap:butt;stroke-linejoin:miter;"/>
            </g>
            <g id="path8888" transform="matrix(1.07148,0,0,1.10228,-188.237,-147.297)">
                <path d="M205.5,167.5L202.2,168.6C201.3,168.9 200.8,169.7 200.9,170.6C201.1,172.2 203.1,172.9 203.7,173.4C204.3,173.9 205.6,175.6 207.1,175.3C207.9,175.2 208.5,174.5 208.5,173.4L208.5,169.8" style="fill:white;fill-rule:nonzero;"/>
            </g>
            <g id="path8890" transform="matrix(1.07148,0,0,1.10228,-188.237,-147.297)">
                <path d="M205.5,167.5L202.2,168.6C201.3,168.9 200.8,169.7 200.9,170.6C201.1,172.2 203.1,172.9 203.7,173.4C204.3,173.9 205.6,175.6 207.1,175.3C207.9,175.2 208.5,174.5 208.5,173.4L208.5,169.8" style="fill:rgb(155,27,47);fill-rule:nonzero;stroke:black;stroke-width:2.2px;stroke-linecap:butt;stroke-linejoin:miter;"/>
            </g>
            <g id="path8892" transform="matrix(1.07148,0,0,1.10228,-188.237,-147.297)">
                <path d="M208.5,169.8L208.5,173.4C208.5,174.4 209.1,175.1 209.9,175.3C211.4,175.5 212.7,173.9 213.3,173.4C213.9,172.9 215.9,172.2 216.1,170.6C216.2,169.7 215.8,168.9 214.8,168.6L211.5,167.5" style="fill:white;fill-rule:nonzero;"/>
            </g>
            <g id="path8894" transform="matrix(1.07148,0,0,1.10228,-188.237,-147.297)">
                <path d="M208.5,169.8L208.5,173.4C208.5,174.4 209.1,175.1 209.9,175.3C211.4,175.5 212.7,173.9 213.3,173.4C213.9,172.9 215.9,172.2 216.1,170.6C216.2,169.7 215.8,168.9 214.8,168.6L211.5,167.5" style="fill:rgb(155,27,47);fill-rule:nonzero;stroke:black;stroke-width:2.2px;stroke-linecap:butt;stroke-linejoin:miter;"/>
            </g>
            <g id="path8896" transform="matrix(1.07148,0,0,1.10228,-188.237,-147.297)">
                <path d="M211.6,167.5L214.9,168.6C215.8,168.9 216.7,168.5 217,167.8C217.7,166.4 216.5,164.6 216.3,163.8C216.1,163 216,160.9 214.6,160.1C213.9,159.7 213,159.9 212.4,160.7L210.4,163.6" style="fill:white;fill-rule:nonzero;"/>
            </g>
            <g id="path8898" transform="matrix(1.07148,0,0,1.10228,-188.237,-147.297)">
                <path d="M211.6,167.5L214.9,168.6C215.8,168.9 216.7,168.5 217,167.8C217.7,166.4 216.5,164.6 216.3,163.8C216.1,163 216,160.9 214.6,160.1C213.9,159.7 213,159.9 212.4,160.7L210.4,163.6" style="fill:rgb(155,27,47);fill-rule:nonzero;stroke:black;stroke-width:2.2px;stroke-linecap:butt;stroke-linejoin:miter;"/>
            </g>
            <g id="path8900" transform="matrix(1.07148,0,0,1.10228,-188.237,-147.297)">
                <path d="M212.1,166.4C212.1,168.4 210.5,170.1 208.6,170.1C206.6,170.1 205.1,168.4 205.1,166.4C205.1,164.4 206.7,162.7 208.6,162.7C210.5,162.7 212.1,164.4 212.1,166.4" style="fill-rule:nonzero;"/>
            </g>
            <g id="ellipse8902" transform="matrix(1.07148,0,0,1.10228,-188.237,-147.297)">
                <ellipse cx="208.5" cy="166.4" rx="3.5" ry="3.7" style="fill:none;stroke:black;stroke-width:1.98px;"/>
            </g>
        </g>
    </g>
</svg>